<?xml version="1.0" standalone="no"?>
<!DOCTYPE svg PUBLIC "-//W3C//DTD SVG 20010904//EN"
 "http://www.w3.org/TR/2001/REC-SVG-20010904/DTD/svg10.dtd">
<svg version="1.0" xmlns="http://www.w3.org/2000/svg"
 width="1024.000000pt" height="1024.000000pt" viewBox="0 0 1024.000000 1024.000000"
 preserveAspectRatio="xMidYMid meet">

<g transform="translate(0.000000,1024.000000) scale(0.100000,-0.100000)"
fill="#000000" stroke="none">
<path d="M3604 8434 c-174 -105 -305 -249 -389 -427 -37 -78 -63 -163 -53
-173 4 -3 49 -9 101 -14 237 -20 342 -139 356 -405 l6 -120 409 0 409 0 22 71
c98 320 373 571 647 592 37 2 68 10 70 16 2 6 2 120 0 254 l-3 242 -757 0
-758 0 -60 -36z m1486 -224 c0 -160 0 -160 -22 -159 -17 1 -19 2 -5 6 15 4 17
20 17 154 l0 149 -698 0 -699 0 -69 -49 c-38 -26 -96 -72 -129 -101 -55 -48
-54 -46 8 14 38 36 96 84 129 106 l60 40 704 0 704 0 0 -160z m-117 -180 c-40
-10 -104 -35 -143 -54 -79 -40 -92 -41 -27 -2 53 30 182 76 217 75 14 0 -8 -9
-47 -19z m-248 -113 c-16 -12 -66 -56 -110 -97 -67 -63 -71 -65 -25 -16 56 59
146 136 158 135 4 0 -6 -10 -23 -22z m-1119 -119 l29 -33 -32 29 c-31 28 -38
36 -30 36 2 0 16 -15 33 -32z m934 -62 c0 -2 -8 -10 -17 -17 -16 -13 -17 -12
-4 4 13 16 21 21 21 13z m-342 -343 c-87 -2 -229 -2 -315 0 -87 1 -16 3 157 3
173 0 244 -2 158 -3z"/>
<path d="M5320 8214 l0 -256 108 4 c84 3 116 8 147 25 179 95 192 381 21 461
-39 19 -64 22 -161 22 l-115 0 0 -256z"/>
<path d="M4935 7765 c-63 -31 -115 -66 -216 -147 l-34 -28 43 -82 c86 -166
247 -349 392 -448 35 -24 102 -59 149 -79 77 -31 96 -35 181 -35 105 -1 146
13 177 61 17 25 17 27 -1 37 -104 63 -157 106 -252 200 -133 134 -224 262
-305 431 -33 69 -61 125 -62 125 -1 0 -33 -16 -72 -35z"/>
<path d="M3617 6978 c-9 -284 -63 -491 -246 -938 -167 -406 -235 -591 -302
-824 -106 -367 -158 -726 -146 -1011 26 -602 234 -1075 613 -1399 109 -93 113
-95 159 -53 l37 34 -47 103 c-128 280 -195 583 -195 881 0 250 32 432 116 656
170 457 487 920 1067 1558 60 66 112 126 114 132 3 7 -28 48 -68 91 -86 92
-160 212 -206 334 -60 158 -67 205 -68 411 l0 187 -411 0 -411 0 -6 -162z m90
-260 c-3 -7 -5 -2 -5 12 0 14 2 19 5 13 2 -7 2 -19 0 -25z m-10 -50 c-3 -7 -5
-2 -5 12 0 14 2 19 5 13 2 -7 2 -19 0 -25z m-22 -108 c-10 -39 -19 -69 -21
-67 -3 2 3 36 13 75 9 40 19 70 21 67 2 -2 -3 -36 -13 -75z m-36 -129 c-7 -23
-14 -39 -16 -37 -3 2 1 23 8 45 7 23 14 39 16 37 3 -2 -1 -23 -8 -45z m-63
-194 c-46 -125 -145 -375 -216 -542 -59 -138 -185 -524 -224 -680 -19 -77 -39
-158 -45 -180 l-10 -40 5 40 c26 188 164 626 309 976 99 237 214 539 216 562
0 8 2 8 5 1 3 -7 -15 -68 -40 -137z m-499 -1484 c-3 -10 -5 -4 -5 12 0 17 2
24 5 18 2 -7 2 -21 0 -30z m-10 -55 c-3 -8 -6 -5 -6 6 -1 11 2 17 5 13 3 -3 4
-12 1 -19z"/>
<path d="M5025 5950 l-29 -31 18 -33 c20 -37 169 -214 377 -448 178 -201 289
-342 403 -513 184 -276 334 -577 403 -807 3 -10 15 -18 28 -18 35 0 85 21 85
35 0 8 -13 49 -29 92 -128 345 -351 727 -630 1078 -150 188 -574 671 -592 674
-3 1 -18 -13 -34 -29z"/>
<path d="M4491 4613 c-78 -39 -140 -179 -127 -289 18 -151 112 -247 211 -214
46 15 108 87 128 151 44 134 -6 304 -104 354 -36 19 -66 19 -108 -2z"/>
<path d="M5345 4616 c-38 -17 -81 -67 -108 -126 -16 -34 -21 -66 -21 -135 0
-108 25 -171 86 -215 77 -56 152 -45 207 31 39 54 54 106 53 194 0 109 -44
202 -116 246 -36 22 -59 23 -101 5z"/>
<path d="M6527 4118 c-197 -326 -679 -986 -1129 -1551 -93 -116 -168 -213
-168 -217 0 -12 123 -91 136 -86 7 3 61 66 121 142 59 75 143 182 186 236 193
245 697 910 1024 1351 24 33 43 64 43 70 0 11 -156 107 -173 107 -4 0 -22 -24
-40 -52z"/>
<path d="M6771 3867 c-171 -244 -698 -952 -1091 -1467 -69 -91 -136 -179 -148
-196 l-21 -31 121 -109 c218 -194 380 -334 389 -334 27 0 902 1180 1218 1643
17 26 29 52 25 59 -4 6 -3 8 4 4 10 -6 142 174 142 194 0 11 -553 330 -570
329 -3 0 -34 -41 -69 -92z m342 -373 c76 -25 137 -48 135 -50 -2 -1 -66 17
-142 41 -133 43 -181 51 -219 37 -14 -6 12 -31 123 -120 77 -63 140 -116 140
-119 0 -7 6 -11 -152 115 -70 56 -129 106 -133 111 -9 15 26 30 70 31 22 0
102 -21 178 -46z m-257 -255 c68 -22 144 -49 167 -60 53 -26 30 -20 -103 26
-58 20 -136 45 -175 55 -42 11 -59 19 -42 19 15 1 84 -17 153 -40z m-18 -129
c67 -56 122 -104 122 -107 0 -4 -8 1 -17 9 -10 8 -72 59 -138 112 -66 54 -127
107 -135 119 -12 18 -9 16 15 -5 17 -15 85 -72 153 -128z m295 135 c-3 -9 -8
-14 -10 -11 -3 3 -2 9 2 15 9 16 15 13 8 -4z m-467 -294 c77 -26 149 -54 160
-60 23 -15 23 -15 -163 48 -149 51 -183 57 -190 35 -2 -6 56 -64 129 -129 73
-65 135 -124 136 -132 2 -9 -2 -20 -9 -27 -9 -8 -10 -8 -5 1 12 22 -7 44 -123
144 -130 112 -144 129 -135 153 10 26 49 19 200 -33z m-142 -300 c71 -27 134
-47 140 -44 8 4 8 2 1 -5 -8 -9 -52 4 -165 47 -183 70 -230 90 -230 96 0 4 51
-14 254 -94z m-34 -167 c14 -15 -29 20 -95 78 -66 58 -131 118 -145 134 -14
15 29 -20 95 -78 66 -58 131 -119 145 -134z m-397 9 c-7 -2 -19 -2 -25 0 -7 3
-2 5 12 5 14 0 19 -2 13 -5z m176 -63 c56 -24 100 -44 98 -46 -4 -5 -219 84
-227 93 -7 8 8 3 129 -47z m-174 -10 c21 -22 37 -40 34 -40 -3 0 -23 18 -44
40 -21 22 -37 40 -34 40 3 0 23 -18 44 -40z m345 -60 c8 -5 11 -10 5 -10 -5 0
-17 5 -25 10 -8 5 -10 10 -5 10 6 0 17 -5 25 -10z m-220 -55 c30 -30 52 -55
49 -55 -2 0 -29 25 -59 55 -30 30 -52 55 -49 55 2 0 29 -25 59 -55z"/>
<path d="M4165 3878 c-24 -19 -27 -26 -22 -65 9 -79 108 -216 212 -293 172
-127 333 -174 595 -174 218 0 352 30 515 112 73 37 107 63 180 137 144 144
186 247 120 291 -36 24 -62 13 -140 -62 -124 -117 -257 -193 -417 -236 -119
-33 -335 -32 -458 0 -159 43 -283 114 -471 270 -58 48 -75 51 -114 20z"/>
</g>
</svg>
